[AV_LOG_VERBOSE] Reinit context to 1280x720, pix_fmt: yuv420p
Input #0, mov,mp4,m4a,3gp,3g2,mj2, from 'E:/faceswap_datasets/video/a_1.mp4':
  Metadata:
    major_brand     : mp42
    minor_version   : 0
    compatible_brands: mp41isom
    creation_time   : 2019-11-07T11:12:35.000000Z
  Duration: 00:01:00.74, start: 0.000000, bitrate: 2193 kb/s
    Stream #0:0(und): Video: h264 (Main) (avc1 / 0x31637661), yuv420p, 1280x720 [SAR 1:1 DAR 16:9], 2061 kb/s, 30.31 fps, 30.31 tbr, 30311 tbn, 60.62 tbc (default)
    Metadata:
      creation_time   : 2019-11-07T11:12:35.000000Z
      handler_name    : VideoHandler
      encoder         : AVC Coding
    Stream #0:1(und): Audio: aac (LC) (mp4a / 0x6134706D), 44100 Hz, stereo, fltp, 128 kb/s (default)
    Metadata:
      creation_time   : 2019-11-07T11:12:35.000000Z
      handler_name    : SoundHandler
[AV_LOG_VERBOSE] Reinit context to 1280x720, pix_fmt: yuv420p
[AV_LOG_WARNING] Warning: data is not aligned! This can lead to a speed loss
